<svg xmlns="http://www.w3.org/2000/svg" version="1.1" xmlns:xlink="http://www.w3.org/1999/xlink" xmlns:svgjs="http://svgjs.dev/svgjs" width="64" height="64"><svg xmlns="http://www.w3.org/2000/svg" viewBox="0 0 64 64">
  <!-- 背景円 -->
  <circle cx="32" cy="32" r="30" fill="#1A1E2D" stroke="#2A2F45" stroke-width="2"></circle>
  
  <!-- ビットコインシンボル - 小さめに -->
  <g transform="translate(20, 12) scale(0.3)">
    <path d="M63.036,39.741c-4.274,17.143-21.637,27.576-38.782,23.301C7.116,58.768-3.317,41.404,0.959,24.262
    C5.234,7.117,22.597-3.317,39.739,0.957C56.882,5.232,67.312,22.597,63.036,39.741z" fill="#F7931A"></path>
    <path d="M46.1,27.441c0.637-4.258-2.605-6.547-7.038-8.074l1.438-5.768l-3.511-0.875l-1.4,5.616
    c-0.923-0.23-1.871-0.447-2.813-0.662l1.41-5.653l-3.509-0.875l-1.439,5.766c-0.764-0.174-1.514-0.346-2.242-0.527l0.004-0.018
    l-4.842-1.209l-0.934,3.75c0,0,2.605,0.597,2.55,0.634c1.422,0.355,1.679,1.296,1.636,2.042l-1.638,6.571
    c0.098,0.025,0.225,0.061,0.365,0.117c-0.117-0.029-0.242-0.061-0.371-0.092l-2.296,9.205c-0.174,0.432-0.615,1.08-1.609,0.834
    c0.035,0.051-2.552-0.637-2.552-0.637l-1.743,4.019l4.569,1.139c0.85,0.213,1.683,0.436,2.503,0.646l-1.453,5.834l3.507,0.875
    l1.439-5.772c0.958,0.26,1.888,0.5,2.798,0.727l-1.434,5.745l3.511,0.875l1.453-5.823c5.987,1.133,10.489,0.676,12.384-4.739
    c1.527-4.36-0.076-6.875-3.226-8.515C44.513,32.295,45.637,30.533,46.1,27.441z M37.9,37.859c-1.086,4.36-8.426,2.003-10.807,1.412
    l1.928-7.729C31.398,32.031,39.055,33.274,37.9,37.859z M38.986,27.351c-0.99,3.966-7.1,1.951-9.082,1.457l1.748-7.01
    C33.733,22.291,40.038,23.176,38.986,27.351z" fill="white"></path>
  </g>
  
  <!-- パワーロー曲線 - 簡略化 -->
  <path d="M12,48 Q22,42 32,36 Q42,32 52,18" fill="none" stroke="#4CAF50" stroke-width="2.5" stroke-linecap="round" stroke-dasharray="3,3"></path>
  
  <!-- 実際価格線 - 簡略化 -->
  <path d="M12,46 L17,44 L22,47 L27,41 L32,38 L37,35 L42,32 L47,26 L52,22" fill="none" stroke="#F7931A" stroke-width="2" stroke-linecap="round"></path>
</svg><style>@media (prefers-color-scheme: light) { :root { filter: none; } }
@media (prefers-color-scheme: dark) { :root { filter: none; } }
</style></svg>