<svg xmlns="http://www.w3.org/2000/svg" viewBox="0 0 32 32">
  <!-- 背景円 -->
  <circle cx="16" cy="16" r="15" fill="#1A1E2D" stroke="#2A2F45" stroke-width="1"/>
  
  <!-- ビットコインシンボル - シンプル化 -->
  <g transform="translate(8, 8) scale(0.5)">
    <path d="M16,0C7.2,0,0,7.2,0,16s7.2,16,16,16s16-7.2,16-16S24.8,0,16,0z" fill="#F7931A"/>
    <path d="M21.7,14.4c0.3-1.9-1.2-2.9-3.1-3.6l0.6-2.6l-1.6-0.4l-0.6,2.5c-0.4-0.1-0.8-0.2-1.3-0.3l0.6-2.5l-1.6-0.4l-0.6,2.6
    c-0.3-0.1-0.7-0.2-1-0.2v0L10.7,9l-0.4,1.7c0,0,1.2,0.3,1.1,0.3c0.6,0.2,0.8,0.6,0.7,0.9l-0.7,2.9c0,0,0.1,0,0.2,0.1
    c-0.1,0-0.1,0-0.2,0l-1,4.1c-0.1,0.2-0.3,0.5-0.7,0.4c0,0-1.1-0.3-1.1-0.3l-0.8,1.8l2,0.5c0.4,0.1,0.8,0.2,1.1,0.3l-0.6,2.6
    l1.6,0.4l0.6-2.6c0.4,0.1,0.9,0.2,1.3,0.3l-0.6,2.6l1.6,0.4l0.6-2.6c2.7,0.5,4.7,0.3,5.5-2.1c0.7-1.9,0-3.1-1.4-3.8
    C20.9,16.6,21.5,15.8,21.7,14.4z M18.1,19c-0.5,1.9-3.8,0.9-4.8,0.6l0.9-3.4C15.1,16.5,18.6,17,18.1,19z M18.5,14.4
    c-0.4,1.8-3.2,0.9-4.1,0.7l0.8-3.1C16.1,12.2,19,12.6,18.5,14.4z" fill="white"/>
  </g>
</svg>
